<svg width="730" height="1707" viewBox="0 0 730 1707" fill="none" xmlns="http://www.w3.org/2000/svg">
<path d="M0.932598 469.326C3.7326 483.459 11.5993 499.059 20.9326 508.392C33.8659 521.592 47.0659 528.126 65.7326 530.792C75.3326 532.126 78.6659 531.992 87.5993 530.126C101.999 527.192 115.866 520.126 125.199 510.926C129.599 506.526 164.799 458.792 208.799 397.459L284.799 291.592L285.466 969.459C286.133 1604.53 286.266 1647.73 288.399 1653.73C295.333 1673.19 308.666 1689.06 325.066 1697.73C353.999 1712.93 387.999 1707.99 410.933 1685.33C420.399 1675.99 425.333 1668.53 429.866 1656.39L432.799 1648.66L433.466 971.592L434.133 294.526L516.133 394.792C561.199 449.992 601.199 498.259 605.066 501.992C608.933 505.859 616.266 511.059 621.733 513.859C651.599 528.792 684.399 523.592 708.266 499.859C722.266 485.992 729.466 468.792 729.466 448.926C729.466 435.726 726.533 424.126 720.399 412.926C715.199 403.592 413.333 33.3255 400.533 20.6588C378.933 -0.674488 344.266 -5.87449 316.133 8.25885C303.599 14.3922 294.399 24.1255 274.666 51.4589C170.399 196.259 15.9993 411.592 11.9993 417.726C4.79926 428.792 1.3326 439.859 0.799264 453.992C0.532598 460.526 0.665932 467.459 0.932598 469.326Z" fill="white"/>
</svg>
